<svg width="289" height="37" viewBox="0 0 289 37" fill="none" xmlns="http://www.w3.org/2000/svg">
<path fill-rule="evenodd" clip-rule="evenodd" d="M11.4618 15.5054C10.0932 15.8142 8.89301 16.6318 8.1045 17.7923L6.8232 19.9819L5.24994 13.0401C4.6041 13.1234 4.00466 13.4204 3.54695 13.8835C2.66886 15.1155 1.85677 16.3931 1.11408 17.7112C0.573702 18.723 0.211592 19.8204 0.0436306 20.955C-0.0513527 21.84 0.00902526 22.7346 0.222041 23.5987C0.550615 24.7928 0.973644 25.9588 1.48712 27.0858C2.00613 28.2536 2.55759 29.389 3.10903 30.5243C3.95243 32.1462 4.82825 33.8816 5.7203 35.5522C5.74828 35.6157 5.78871 35.6729 5.83919 35.7204C5.88968 35.768 5.94919 35.8051 6.0142 35.8292C6.07922 35.8534 6.14843 35.8643 6.21773 35.8613C6.28704 35.8583 6.35505 35.8414 6.41772 35.8117C6.48176 35.7821 6.53933 35.74 6.58707 35.688C6.63482 35.6361 6.67182 35.5752 6.69594 35.5088C6.72007 35.4425 6.73082 35.3721 6.72761 35.3016C6.7244 35.2311 6.70728 35.1619 6.67722 35.0981C6.05009 33.6383 5.44457 32.184 4.86069 30.7351C4.26058 29.2916 3.6767 27.8644 3.14147 26.3884C2.67724 25.3374 2.29232 24.2531 1.98992 23.1446C1.78865 22.4721 1.70633 21.7695 1.74663 21.0686C1.80382 20.1088 2.02318 19.1655 2.3954 18.2789C2.91152 17.0732 3.49636 15.898 4.14705 14.7594C4.71472 16.657 5.31482 18.5547 5.91493 20.4523C5.95248 20.5706 6.03387 20.6701 6.14242 20.7304C6.25098 20.7908 6.37848 20.8073 6.49882 20.7767C6.5722 20.7481 6.63466 20.6969 6.67722 20.6306C6.7015 20.7018 6.74673 20.7641 6.80697 20.8091C6.85693 20.8424 6.91299 20.8655 6.97193 20.877C7.03086 20.8885 7.0915 20.8882 7.15032 20.8762C7.20916 20.8641 7.26501 20.8405 7.31464 20.8067C7.36429 20.7729 7.40673 20.7296 7.43952 20.6793L9.06142 18.5222C9.63027 17.877 10.3652 17.4002 11.1862 17.1435C11.2649 17.1072 11.3507 17.0884 11.4375 17.0884C11.5243 17.0884 11.6101 17.1072 11.6889 17.1435C11.8998 17.2408 11.8836 17.549 11.8836 18.0194C11.8931 18.3632 11.8324 18.7054 11.7051 19.025C11.3483 20.1117 10.5698 20.8577 10.213 21.9119C9.74262 23.5338 10.3103 25.1557 10.067 26.6155C10.0267 26.9464 9.9125 27.264 9.73282 27.5447C9.55313 27.8255 9.31258 28.0622 9.02899 28.2374C8.88957 28.3345 8.7432 28.4212 8.59107 28.4969C8.46391 28.5509 8.36253 28.6518 8.30812 28.7788C8.25372 28.9057 8.2505 29.0488 8.29913 29.1781C8.34496 29.2801 8.42069 29.3656 8.51626 29.4235C8.61185 29.4815 8.72278 29.509 8.83436 29.5025C8.88217 29.9384 8.95254 30.3715 9.04521 30.8C9.11199 31.0709 9.19874 31.3366 9.30471 31.5948C9.40176 31.8559 9.51553 32.1105 9.64531 32.357C9.93725 32.9571 10.2779 33.4924 10.5698 34.0762C10.6174 34.2093 10.7159 34.3181 10.8435 34.3789C10.9712 34.4396 11.1176 34.4475 11.251 34.4006C11.3163 34.3788 11.3766 34.3441 11.4283 34.2987C11.4801 34.2532 11.5223 34.198 11.5525 34.1361C11.5827 34.0742 11.6003 34.0069 11.6042 33.9381C11.6081 33.8694 11.5983 33.8005 11.5754 33.7356C11.4618 33.0869 11.3645 32.4381 11.2186 31.7731C11.1374 31.5136 11.0726 31.2379 10.9753 30.9622C10.8838 30.7066 10.7755 30.4573 10.6509 30.2161C10.4359 29.7977 10.1976 29.3915 9.93725 28.9996C10.413 28.7043 10.8041 28.2909 11.0726 27.7995C11.4708 26.875 11.6378 25.8674 11.5592 24.8638C11.509 24.0686 11.608 23.2709 11.8511 22.5121C12.2242 21.4741 12.9864 20.6955 13.3594 19.7061C13.573 19.165 13.667 18.5841 13.6352 18.0032C13.4568 15.992 12.4999 15.4244 11.4618 15.5054Z" fill="#101828"/>
<path fill-rule="evenodd" clip-rule="evenodd" d="M23.9501 9.26112C23.9501 9.26112 24.5502 8.5637 24.7448 8.27175C24.8129 8.17055 24.8597 8.05645 24.882 7.93649C24.9043 7.81654 24.9018 7.69328 24.8746 7.57434C24.7705 7.24381 24.5802 6.94706 24.3231 6.71473C23.9048 6.38398 23.4403 6.11623 22.9445 5.91999C22.6038 5.7578 22.247 5.64427 22.1498 5.40098C22.0525 5.1577 22.247 4.6549 22.5066 4.18455C22.9686 3.41461 23.5123 2.69681 24.1285 2.04364C24.2219 1.94189 24.2739 1.80876 24.2739 1.6706C24.2739 1.53244 24.2219 1.39931 24.1285 1.29756C24.0787 1.24705 24.0193 1.20694 23.9539 1.17957C23.8885 1.15219 23.8183 1.13809 23.7474 1.13809C23.6764 1.13809 23.6062 1.15219 23.5407 1.17957C23.4753 1.20694 23.4159 1.24705 23.3662 1.29756C22.5361 2.11598 21.8214 3.04357 21.2415 4.0548C21.0809 4.32262 20.9752 4.61975 20.9306 4.92885C20.8861 5.23796 20.9035 5.55283 20.9819 5.85512C21.1227 6.18327 21.3604 6.46056 21.6632 6.64985C22.02 6.90935 22.5066 7.1202 22.9445 7.3797C23.0821 7.44744 23.2125 7.52895 23.3338 7.62299C23.1398 7.87031 22.9714 8.13658 22.8309 8.41772C22.4273 8.92256 22.0743 9.4658 21.7767 10.0396C21.4855 10.5928 21.2518 11.1743 21.0793 11.7751C20.9625 12.202 21.0029 12.6567 21.1928 13.0564C21.4691 13.557 21.801 14.025 22.1822 14.4513C22.2847 14.573 22.377 14.7033 22.4579 14.8405C22.4579 14.8405 22.4579 14.9216 22.4579 14.9702L21.0793 17.1922C20.8522 17.7113 20.6576 18.279 20.463 18.8141C20.179 17.9513 19.8432 17.1063 19.4574 16.2839C19.0686 15.4317 18.6016 14.6173 18.0625 13.8511C17.8518 13.543 17.4786 13.1536 17.2192 12.7644C17.1064 12.6509 17.023 12.5118 16.9759 12.359C17.0894 12.359 17.0732 12.067 17.1705 11.8887C17.2679 11.7102 17.6733 11.0128 17.8518 10.6397C17.9771 10.3948 18.0645 10.1323 18.1112 9.86122C18.2045 9.55015 18.2589 9.22874 18.2734 8.90429C18.217 8.64374 18.0595 8.41621 17.8354 8.27175C17.138 7.85005 15.4675 7.75274 14.3971 7.26617C14.0889 7.13642 13.8456 7.00667 13.8294 6.71473C13.8166 6.52573 13.85 6.33648 13.9267 6.16327C14.1051 5.56317 14.4457 4.91441 14.5592 4.54137L15.1918 1.88145C15.2105 1.75894 15.1801 1.63401 15.1072 1.53379C15.0343 1.43357 14.9248 1.36616 14.8025 1.34622C14.7021 1.31601 14.5948 1.31601 14.4944 1.34622C14.4351 1.26804 14.3549 1.20826 14.263 1.17381C14.1711 1.13937 14.0714 1.13166 13.9753 1.15159C11.6074 1.70304 9.33671 2.56264 7.00117 3.22763L5.34682 3.69798C4.54386 3.82496 3.7521 4.01476 2.97884 4.26565C2.45913 4.44609 2.01412 4.7941 1.71375 5.25501C1.58297 5.68868 1.58297 6.1513 1.71375 6.58498C1.92461 7.52568 2.57336 8.98539 2.65445 9.35843C2.89774 10.2991 3.15725 11.2074 3.43297 12.1319C3.70869 13.0564 5.05488 12.7158 4.92513 11.4669L4.34124 8.96917C3.95415 7.98095 3.63444 6.96764 3.38431 5.93621C3.57894 5.93621 3.95198 5.77402 4.17905 5.69292C4.81159 5.51451 5.44414 5.36854 5.80095 5.28745C6.40106 5.10904 6.98494 4.91441 7.56883 4.70356C9.72596 3.89261 11.9155 2.93568 14.17 2.2707L13.6347 4.21699C13.4888 4.60624 13.132 5.25501 12.9373 5.83889C12.8126 6.13205 12.7412 6.44512 12.7264 6.76338C12.75 7.12036 12.8756 7.46306 13.0883 7.75064C13.3011 8.0382 13.5922 8.25851 13.9267 8.38529C14.7539 8.79076 16.019 8.96917 16.765 9.26112C16.7761 9.39064 16.7761 9.52085 16.765 9.65037C16.4819 10.2948 16.1341 10.9089 15.727 11.4831C15.5576 11.7618 15.4679 12.0816 15.4675 12.4076C15.5078 12.761 15.618 13.1029 15.7919 13.4132C16.0676 13.8998 16.5055 14.4187 16.7488 14.7918C17.1759 15.4933 17.5396 16.2315 17.8354 16.9976C18.1644 17.7784 18.4407 18.5803 18.6627 19.398L19.0843 21.0199C19.0843 21.1984 19.0843 21.6362 19.1817 21.8471C19.2191 21.9909 19.2794 22.1278 19.3601 22.2526C19.4531 22.3818 19.5785 22.4843 19.7238 22.5498C19.869 22.6153 20.0288 22.6414 20.1873 22.6256C20.3463 22.6208 20.5009 22.571 20.633 22.4821C20.765 22.3931 20.8691 22.2685 20.9333 22.1229C21.1774 21.6929 21.3836 21.2424 21.5496 20.7766C21.9064 19.8197 22.166 18.7817 22.5714 17.8734L23.9177 15.5865C24.0214 15.3687 24.0753 15.1304 24.0753 14.8891C24.0753 14.6478 24.0214 14.4096 23.9177 14.1917C23.6287 13.6919 23.2801 13.229 22.8796 12.813C22.685 12.6023 22.4255 12.4238 22.5066 12.1643C22.653 11.6441 22.8485 11.1391 23.0905 10.656C23.338 10.1681 23.6256 9.70153 23.9501 9.26112ZM3.31944 6.01731V5.87133C3.31944 5.83889 3.33566 6.01731 3.31944 6.04974V6.01731Z" fill="#78B980"/>
<path fill-rule="evenodd" clip-rule="evenodd" d="M38.9206 20.9227C38.7527 19.7881 38.3906 18.6907 37.8502 17.6789C37.108 16.2228 36.1932 14.8614 35.1254 13.6242C34.696 13.2827 34.2343 12.9839 33.7468 12.7321L32.1249 20.0144L30.8112 17.7924C30.011 16.6216 28.7917 15.8031 27.4051 15.5056C26.3671 15.4245 25.4102 15.9921 25.2642 17.9547C25.2277 18.5343 25.3163 19.1151 25.5237 19.6576C25.913 20.647 26.6753 21.4255 27.0483 22.4636C27.2785 23.225 27.3719 24.0213 27.3241 24.8153C27.2618 25.8196 27.4338 26.8246 27.8269 27.7509C28.0743 28.1994 28.4245 28.5829 28.8487 28.8701C28.5496 29.2863 28.2838 29.7256 28.0539 30.1838C27.9322 30.4263 27.824 30.6754 27.7295 30.9298C27.6484 31.1894 27.5674 31.4489 27.5024 31.7084C27.3727 32.341 27.2754 32.9411 27.1618 33.5736C27.115 33.7069 27.1228 33.8535 27.1836 33.981C27.2444 34.1087 27.3532 34.2071 27.4862 34.2548C27.5499 34.2804 27.6183 34.2928 27.6869 34.291C27.7555 34.2892 27.823 34.2735 27.8854 34.2446C27.9477 34.2157 28.0035 34.1744 28.0492 34.1231C28.0949 34.0719 28.1296 34.0118 28.1513 33.9466C28.4756 33.379 28.8 32.8599 29.092 32.3247C29.2055 32.0814 29.319 31.8381 29.4164 31.5786C29.509 31.3244 29.5849 31.0643 29.6434 30.8001C29.7569 30.3459 29.8056 29.8919 29.8704 29.454C30.002 29.5033 30.1474 29.5005 30.2771 29.4463C30.4067 29.392 30.5107 29.2904 30.5678 29.162C30.6156 29.0307 30.61 28.886 30.5524 28.7587C30.4948 28.6313 30.3898 28.5316 30.2597 28.4808C29.8781 28.3215 29.5461 28.0629 29.2981 27.7322C29.0499 27.4014 28.8948 27.0103 28.8487 26.5994C28.6054 25.1559 29.173 23.4529 28.7026 21.8959C28.3458 20.8417 27.6322 20.0145 27.243 19.0251C27.1287 18.7024 27.0737 18.3617 27.0807 18.0195C27.0807 17.5491 27.0807 17.241 27.2754 17.1437C27.3542 17.1073 27.44 17.0885 27.5268 17.0885C27.6136 17.0885 27.6994 17.1073 27.7781 17.1437C28.5944 17.4007 29.3239 17.8777 29.8867 18.5223L31.5086 20.6794C31.5398 20.7315 31.5815 20.7765 31.631 20.8117C31.6805 20.8468 31.7368 20.8713 31.7963 20.8835C31.8558 20.8956 31.9171 20.8953 31.9765 20.8825C32.0358 20.8698 32.0919 20.8448 32.1411 20.8092C32.2014 20.7641 32.2466 20.702 32.2708 20.6308C32.3092 20.7007 32.3731 20.753 32.4493 20.7767C32.5697 20.8074 32.6971 20.7909 32.8057 20.7306C32.9142 20.6702 32.9956 20.5707 33.0332 20.4523C33.6333 18.5547 34.2334 16.6571 34.801 14.7595C35.4634 15.9028 36.059 17.0833 36.5851 18.2953C36.9573 19.1819 37.1767 20.125 37.2339 21.0849C37.2742 21.7858 37.1919 22.4883 36.9906 23.161C36.6882 24.2694 36.3033 25.3537 35.8391 26.4047C35.3038 27.8807 34.7199 29.3079 34.1198 30.7515C33.5197 32.1949 32.9034 33.6385 32.2708 35.0819C32.2408 35.1458 32.2237 35.215 32.2205 35.2855C32.2173 35.356 32.228 35.4265 32.2522 35.4927C32.2762 35.5591 32.3133 35.62 32.3611 35.672C32.4087 35.7239 32.4663 35.7659 32.5303 35.7956C32.5931 35.8253 32.661 35.8422 32.7304 35.8452C32.7996 35.8482 32.8689 35.8374 32.9339 35.8131C32.9989 35.7889 33.0584 35.752 33.1088 35.7044C33.1593 35.6568 33.1998 35.5996 33.2277 35.5361C34.1198 33.9142 34.9957 32.1949 35.8391 30.5082C36.3905 29.3728 36.9419 28.2375 37.461 27.0697C37.9745 25.9427 38.3974 24.7767 38.7261 23.5826C38.9464 22.7143 39.0123 21.8139 38.9206 20.9227Z" fill="#101828"/>
<path fill-rule="evenodd" clip-rule="evenodd" d="M33.1473 5.28756C33.4717 5.36865 34.1042 5.51462 34.7692 5.69304C34.9963 5.69304 35.3693 5.85523 35.564 5.93632C35.3138 6.96775 34.9941 7.98106 34.607 8.96928L34.1691 10.9318C33.8609 12.4564 34.6719 12.6997 35.6612 11.7427C35.8883 10.948 36.1153 10.1208 36.3262 9.35854C36.4073 8.9855 37.056 7.52579 37.2669 6.58509C37.3977 6.15141 37.3977 5.68879 37.2669 5.25512C36.9665 4.79421 36.5216 4.4462 36.0018 4.26576C35.2286 4.01488 34.4369 3.82507 33.6339 3.69809L31.8498 3.24396C29.5142 2.57898 27.2435 1.71937 24.8756 1.16792C24.7401 1.133 24.5964 1.15249 24.4751 1.22221C24.3539 1.29193 24.2648 1.40634 24.2268 1.54096C24.2073 1.60806 24.2015 1.67841 24.2098 1.7478C24.2181 1.81719 24.2403 1.88418 24.2752 1.94477C24.31 2.00535 24.3567 2.05827 24.4125 2.10036C24.4683 2.14245 24.532 2.17285 24.5998 2.18972C26.9191 2.88713 29.1899 3.89272 31.3794 4.70368C31.9633 4.91452 32.5472 5.10915 33.1473 5.28756ZM35.645 6.09851V6.00119C35.645 5.90388 35.6775 6.04986 35.6775 6.09851H35.645Z" fill="#78B980"/>
<path fill-rule="evenodd" clip-rule="evenodd" d="M26.3341 28.2214C25.6405 28.4014 24.926 28.4886 24.2094 28.4809C23.1714 28.4809 22.1334 28.3024 21.0791 28.2051C20.3412 28.1269 19.5994 28.089 18.8571 28.0916C18.0869 28.1224 17.3212 28.2255 16.5702 28.3998C14.9216 28.8564 13.2975 29.3977 11.7045 30.0217C11.5845 30.0523 11.4812 30.1291 11.4175 30.2354C11.3537 30.3417 11.3345 30.4689 11.364 30.5893C11.3982 30.7072 11.4757 30.8078 11.581 30.871C11.6862 30.9342 11.8114 30.9552 11.9316 30.9299C13.294 30.6867 14.7538 30.3947 16.1972 30.1838C17.0836 29.9953 17.9842 29.8814 18.8896 29.8433C20.4304 29.7298 21.9712 29.8433 23.4796 29.8433C24.5905 29.8183 25.6884 29.5987 26.7234 29.1945C26.8569 29.1465 26.9668 29.049 27.0302 28.9221C27.0936 28.7953 27.1057 28.6488 27.064 28.5133C27.0357 28.4458 26.9942 28.3847 26.9421 28.3334C26.89 28.2821 26.8282 28.2416 26.7603 28.2145C26.6922 28.1872 26.6196 28.1739 26.5465 28.1751C26.4733 28.1763 26.4012 28.192 26.3341 28.2214Z" fill="#78B980"/>
<g clip-path="url(#clip0_37_6)">
<path d="M57.1035 8.63338C57.18 8.63338 57.2412 8.66397 57.2871 8.72515C57.3483 8.77104 57.3788 8.83221 57.3788 8.90868V10.6752C57.3788 10.7517 57.3483 10.8205 57.2871 10.8817C57.2412 10.9276 57.18 10.9505 57.1035 10.9505H52.8822C52.8057 10.9505 52.7675 10.9888 52.7675 11.0652V24.4175C52.7675 24.494 52.7369 24.5628 52.6757 24.624C52.6298 24.6699 52.5687 24.6928 52.4922 24.6928H50.3815C50.305 24.6928 50.2362 24.6699 50.175 24.624C50.1292 24.5628 50.1062 24.494 50.1062 24.4175V11.0652C50.1062 10.9888 50.068 10.9505 49.9915 10.9505H45.9308C45.8543 10.9505 45.7855 10.9276 45.7243 10.8817C45.6784 10.8205 45.6555 10.7517 45.6555 10.6752V8.90868C45.6555 8.83221 45.6784 8.77104 45.7243 8.72515C45.7855 8.66397 45.8543 8.63338 45.9308 8.63338H57.1035ZM67.198 17.512C67.2592 17.8943 67.2898 18.3225 67.2898 18.7967L67.2668 19.5079C67.2668 19.6915 67.1751 19.7832 66.9916 19.7832H59.8106C59.7343 19.7832 59.696 19.8214 59.696 19.8979C59.7419 20.4026 59.8106 20.7468 59.9025 20.9303C60.2695 22.0315 61.1643 22.5898 62.5867 22.6051C63.6267 22.6051 64.4526 22.1769 65.0645 21.3203C65.1256 21.2285 65.202 21.1827 65.2938 21.1827C65.355 21.1827 65.4086 21.2056 65.4544 21.2515L66.8768 22.4216C67.0145 22.5286 67.0374 22.6509 66.9456 22.7886C66.4716 23.4616 65.8368 23.9816 65.0414 24.3487C64.2615 24.7157 63.3897 24.8992 62.4261 24.8992C61.2331 24.8992 60.216 24.6316 59.3748 24.0963C58.5489 23.561 57.9447 22.8115 57.5623 21.848C57.2106 21.0221 57.0347 19.875 57.0347 18.4067C57.0347 17.5196 57.1265 16.8007 57.31 16.2501C57.6159 15.1795 58.1895 14.3383 59.0307 13.7265C59.8871 13.0994 60.9119 12.7859 62.1049 12.7859C65.1179 12.7859 66.8157 14.3612 67.198 17.512ZM62.1049 15.0801C61.539 15.0801 61.0649 15.2254 60.6825 15.516C60.3155 15.7913 60.0554 16.1813 59.9025 16.686C59.8106 16.9461 59.7495 17.2825 59.7189 17.6955C59.6883 17.772 59.7189 17.8102 59.8106 17.8102H64.4679C64.5444 17.8102 64.5827 17.772 64.5827 17.6955C64.552 17.3131 64.5062 17.0225 64.445 16.8237C64.3074 16.2731 64.032 15.8448 63.619 15.5389C63.2214 15.233 62.7166 15.0801 62.1049 15.0801ZM74.7234 12.8318C75.2128 12.8318 75.641 12.9312 76.0082 13.13C76.1305 13.1912 76.1764 13.3059 76.1458 13.4742L75.7558 15.5389C75.7404 15.7225 75.6334 15.776 75.4346 15.6995C75.2052 15.6231 74.9375 15.5848 74.6316 15.5848C74.4328 15.5848 74.2798 15.5925 74.1728 15.6078C73.5304 15.6383 72.995 15.8678 72.5668 16.296C72.1386 16.709 71.9245 17.2519 71.9245 17.9249V24.4175C71.9245 24.494 71.8938 24.5628 71.8327 24.624C71.7868 24.6699 71.7256 24.6928 71.6491 24.6928H69.5385C69.462 24.6928 69.3932 24.6699 69.332 24.624C69.2861 24.5628 69.2632 24.494 69.2632 24.4175V13.2447C69.2632 13.1683 69.2861 13.1071 69.332 13.0612C69.3932 13 69.462 12.9694 69.5385 12.9694H71.6491C71.7256 12.9694 71.7868 13 71.8327 13.0612C71.8938 13.1071 71.9245 13.1683 71.9245 13.2447V14.2771C71.9245 14.3383 71.9321 14.3765 71.9474 14.3918C71.978 14.3918 72.0086 14.3689 72.0392 14.323C72.6816 13.3289 73.5762 12.8318 74.7234 12.8318ZM89.9793 12.7859C91.157 12.7859 92.0747 13.1453 92.7324 13.8642C93.4053 14.5677 93.7418 15.5542 93.7418 16.8237V24.4175C93.7418 24.494 93.7112 24.5628 93.6501 24.624C93.6041 24.6699 93.5429 24.6928 93.4664 24.6928H91.3787C91.3023 24.6928 91.2335 24.6699 91.1723 24.624C91.1264 24.5628 91.1035 24.494 91.1035 24.4175V17.3743C91.1035 16.6707 90.9123 16.1125 90.5299 15.6995C90.1629 15.2866 89.6658 15.0801 89.0387 15.0801C88.4116 15.0801 87.8992 15.2866 87.5016 15.6995C87.1039 16.1125 86.9051 16.6631 86.9051 17.3514V24.4175C86.9051 24.494 86.8745 24.5628 86.8133 24.624C86.7674 24.6699 86.7062 24.6928 86.6297 24.6928H84.542C84.4655 24.6928 84.3967 24.6699 84.3356 24.624C84.2897 24.5628 84.2668 24.494 84.2668 24.4175V17.3743C84.2668 16.6707 84.0755 16.1125 83.6932 15.6995C83.3108 15.2866 82.8061 15.0801 82.179 15.0801C81.5978 15.0801 81.116 15.2483 80.7336 15.5848C80.3666 15.9213 80.1524 16.3801 80.0913 16.9613V24.4175C80.0913 24.494 80.0607 24.5628 79.9995 24.624C79.9536 24.6699 79.8924 24.6928 79.8159 24.6928H77.7053C77.6288 24.6928 77.56 24.6699 77.4988 24.624C77.453 24.5628 77.43 24.494 77.43 24.4175V13.2447C77.43 13.1683 77.453 13.1071 77.4988 13.0612C77.56 13 77.6288 12.9694 77.7053 12.9694H79.8159C79.8924 12.9694 79.9536 13 79.9995 13.0612C80.0607 13.1071 80.0913 13.1683 80.0913 13.2447V14.0018C80.0913 14.0477 80.1066 14.0783 80.1371 14.0936C80.1678 14.1089 80.1984 14.0936 80.2289 14.0477C80.5654 13.6195 80.9783 13.3059 81.4678 13.1071C81.9725 12.893 82.5308 12.7859 83.1425 12.7859C83.892 12.7859 84.5497 12.9388 85.1156 13.2447C85.6815 13.5506 86.1174 13.9942 86.4233 14.5754C86.4691 14.6366 86.5227 14.6366 86.5839 14.5754C86.9204 13.9636 87.3868 13.5124 87.9833 13.2218C88.5799 12.9312 89.2452 12.7859 89.9793 12.7859ZM97.5067 11.3635C97.0325 11.3635 96.6425 11.2105 96.3365 10.9046C96.0307 10.5987 95.8777 10.2087 95.8777 9.73459C95.8777 9.26046 96.0307 8.87045 96.3365 8.56456C96.6425 8.25866 97.0325 8.10571 97.5067 8.10571C97.9807 8.10571 98.3708 8.25866 98.6767 8.56456C98.9825 8.87045 99.1355 9.26046 99.1355 9.73459C99.1355 10.2087 98.9825 10.5987 98.6767 10.9046C98.3708 11.2105 97.9807 11.3635 97.5067 11.3635ZM96.4054 24.6928C96.3289 24.6928 96.2601 24.6699 96.1989 24.624C96.153 24.5628 96.1301 24.494 96.1301 24.4175V13.2218C96.1301 13.1453 96.153 13.0841 96.1989 13.0383C96.2601 12.9771 96.3289 12.9465 96.4054 12.9465H98.5161C98.5926 12.9465 98.6537 12.9771 98.6996 13.0383C98.7608 13.0841 98.7914 13.1453 98.7914 13.2218V24.4175C98.7914 24.494 98.7608 24.5628 98.6996 24.624C98.6537 24.6699 98.5926 24.6928 98.5161 24.6928H96.4054ZM107.002 12.7859C108.241 12.7859 109.227 13.153 109.961 13.8871C110.711 14.6213 111.086 15.6231 111.086 16.8925V24.4175C111.086 24.494 111.055 24.5628 110.994 24.624C110.948 24.6699 110.887 24.6928 110.81 24.6928H108.7C108.623 24.6928 108.554 24.6699 108.493 24.624C108.447 24.5628 108.424 24.494 108.424 24.4175V17.4431C108.424 16.7396 108.225 16.1737 107.828 15.7454C107.43 15.3019 106.902 15.0801 106.245 15.0801C105.587 15.0801 105.052 15.2942 104.639 15.7225C104.241 16.1507 104.042 16.7166 104.042 17.4202V24.4175C104.042 24.494 104.012 24.5628 103.951 24.624C103.905 24.6699 103.844 24.6928 103.767 24.6928H101.656C101.58 24.6928 101.511 24.6699 101.45 24.624C101.404 24.5628 101.381 24.494 101.381 24.4175V13.2447C101.381 13.1683 101.404 13.1071 101.45 13.0612C101.511 13 101.58 12.9694 101.656 12.9694H103.767C103.844 12.9694 103.905 13 103.951 13.0612C104.012 13.1071 104.042 13.1683 104.042 13.2447V13.9789C104.042 14.0248 104.058 14.0554 104.088 14.0706C104.119 14.0859 104.142 14.0706 104.157 14.0248C104.784 13.1988 105.732 12.7859 107.002 12.7859ZM117.875 12.7859C118.839 12.7859 119.688 12.9541 120.422 13.2906C121.156 13.6271 121.722 14.0936 122.119 14.6901C122.517 15.2713 122.716 15.9366 122.716 16.686V24.4175C122.716 24.494 122.685 24.5628 122.624 24.624C122.578 24.6699 122.517 24.6928 122.441 24.6928H120.33C120.254 24.6928 120.185 24.6699 120.123 24.624C120.078 24.5628 120.055 24.494 120.055 24.4175V23.6834C120.055 23.6374 120.039 23.6145 120.009 23.6145C119.978 23.5993 119.948 23.6069 119.917 23.6374C119.168 24.4634 118.082 24.8763 116.659 24.8763C115.512 24.8763 114.564 24.5858 113.814 24.0046C113.08 23.4234 112.713 22.5592 112.713 21.4121C112.713 20.2191 113.126 19.2938 113.952 18.6361C114.793 17.9631 115.971 17.6267 117.485 17.6267H119.94C120.016 17.6267 120.055 17.5885 120.055 17.512V16.9613C120.055 16.3649 119.879 15.906 119.527 15.5848C119.175 15.2483 118.648 15.0801 117.944 15.0801C117.363 15.0801 116.889 15.1872 116.522 15.4013C116.17 15.6001 115.948 15.8831 115.856 16.2501C115.81 16.4337 115.703 16.5101 115.535 16.4796L113.31 16.2043C113.233 16.189 113.164 16.166 113.103 16.1354C113.057 16.0896 113.042 16.036 113.057 15.9748C113.18 15.0419 113.677 14.2771 114.549 13.6806C115.436 13.0841 116.545 12.7859 117.875 12.7859ZM117.325 22.7657C118.074 22.7657 118.716 22.5668 119.252 22.1692C119.787 21.7715 120.055 21.2668 120.055 20.655V19.5767C120.055 19.5003 120.016 19.462 119.94 19.462H118.013C117.202 19.462 116.56 19.615 116.086 19.9209C115.627 20.2267 115.397 20.6627 115.397 21.2285C115.397 21.718 115.573 22.1004 115.925 22.3757C116.292 22.6356 116.759 22.7657 117.325 22.7657ZM130.967 14.8507C130.967 14.9272 130.936 14.996 130.875 15.0571C130.829 15.103 130.768 15.126 130.692 15.126H128.352C128.275 15.126 128.237 15.1642 128.237 15.2407V20.7697C128.237 21.3509 128.359 21.7715 128.604 22.0315C128.864 22.2915 129.269 22.4216 129.82 22.4216H130.508C130.585 22.4216 130.646 22.4521 130.692 22.5133C130.753 22.5592 130.783 22.6204 130.783 22.6969V24.4175C130.783 24.5858 130.692 24.6852 130.508 24.7157L129.315 24.7387C128.107 24.7387 127.205 24.5322 126.608 24.1193C126.012 23.7063 125.706 22.9263 125.69 21.7792V15.2407C125.69 15.1642 125.652 15.126 125.576 15.126H124.268C124.191 15.126 124.123 15.103 124.062 15.0571C124.016 14.996 123.993 14.9272 123.993 14.8507V13.2447C123.993 13.1683 124.016 13.1071 124.062 13.0612C124.123 13 124.191 12.9694 124.268 12.9694H125.576C125.652 12.9694 125.69 12.9312 125.69 12.8547V10.1705C125.69 10.094 125.713 10.0328 125.759 9.98696C125.82 9.92578 125.889 9.8952 125.966 9.8952H127.962C128.038 9.8952 128.099 9.92578 128.145 9.98696C128.206 10.0328 128.237 10.094 128.237 10.1705V12.8547C128.237 12.9312 128.275 12.9694 128.352 12.9694H130.692C130.768 12.9694 130.829 13 130.875 13.0612C130.936 13.1071 130.967 13.1683 130.967 13.2447V14.8507ZM134.386 11.3635C133.912 11.3635 133.522 11.2105 133.216 10.9046C132.91 10.5987 132.757 10.2087 132.757 9.73459C132.757 9.26046 132.91 8.87045 133.216 8.56456C133.522 8.25866 133.912 8.10571 134.386 8.10571C134.86 8.10571 135.25 8.25866 135.556 8.56456C135.862 8.87045 136.015 9.26046 136.015 9.73459C136.015 10.2087 135.862 10.5987 135.556 10.9046C135.25 11.2105 134.86 11.3635 134.386 11.3635ZM133.285 24.6928C133.208 24.6928 133.139 24.6699 133.078 24.624C133.032 24.5628 133.009 24.494 133.009 24.4175V13.2218C133.009 13.1453 133.032 13.0841 133.078 13.0383C133.139 12.9771 133.208 12.9465 133.285 12.9465H135.395C135.472 12.9465 135.533 12.9771 135.579 13.0383C135.64 13.0841 135.671 13.1453 135.671 13.2218V24.4175C135.671 24.494 135.64 24.5628 135.579 24.624C135.533 24.6699 135.472 24.6928 135.395 24.6928H133.285ZM143.239 24.8763C142.031 24.8763 140.991 24.5705 140.119 23.9587C139.262 23.3469 138.658 22.4981 138.306 21.4121C138.046 20.5862 137.916 19.7144 137.916 18.7967C137.916 17.8178 138.039 16.9461 138.283 16.1813C138.635 15.1107 139.247 14.2771 140.119 13.6806C140.991 13.0841 142.038 12.7859 143.262 12.7859C144.424 12.7859 145.426 13.0841 146.267 13.6806C147.124 14.2771 147.728 15.103 148.08 16.1584C148.355 16.8925 148.493 17.7643 148.493 18.7738C148.493 19.7373 148.363 20.6091 148.103 21.3891C147.751 22.475 147.147 23.3316 146.29 23.9587C145.434 24.5705 144.417 24.8763 143.239 24.8763ZM143.239 22.5822C143.805 22.5822 144.287 22.4216 144.684 22.1004C145.097 21.7792 145.395 21.328 145.579 20.7468C145.732 20.242 145.808 19.5997 145.808 18.8196C145.808 17.9937 145.732 17.3514 145.579 16.8925C145.411 16.3113 145.12 15.8678 144.707 15.5619C144.294 15.2407 143.79 15.0801 143.193 15.0801C142.627 15.0801 142.138 15.2407 141.725 15.5619C141.312 15.8678 141.014 16.3113 140.83 16.8925C140.677 17.4278 140.601 18.0702 140.601 18.8196C140.601 19.569 140.677 20.2115 140.83 20.7468C140.998 21.328 141.289 21.7792 141.702 22.1004C142.13 22.4216 142.642 22.5822 143.239 22.5822ZM156.17 12.7859C157.409 12.7859 158.396 13.153 159.13 13.8871C159.879 14.6213 160.255 15.6231 160.255 16.8925V24.4175C160.255 24.494 160.224 24.5628 160.163 24.624C160.116 24.6699 160.055 24.6928 159.979 24.6928H157.868C157.792 24.6928 157.723 24.6699 157.662 24.624C157.615 24.5628 157.593 24.494 157.593 24.4175V17.4431C157.593 16.7396 157.395 16.1737 156.996 15.7454C156.599 15.3019 156.071 15.0801 155.414 15.0801C154.755 15.0801 154.221 15.2942 153.808 15.7225C153.409 16.1507 153.211 16.7166 153.211 17.4202V24.4175C153.211 24.494 153.18 24.5628 153.119 24.624C153.073 24.6699 153.012 24.6928 152.936 24.6928H150.825C150.749 24.6928 150.679 24.6699 150.619 24.624C150.572 24.5628 150.549 24.494 150.549 24.4175V13.2447C150.549 13.1683 150.572 13.1071 150.619 13.0612C150.679 13 150.749 12.9694 150.825 12.9694H152.936C153.012 12.9694 153.073 13 153.119 13.0612C153.18 13.1071 153.211 13.1683 153.211 13.2447V13.9789C153.211 14.0248 153.226 14.0554 153.257 14.0706C153.288 14.0859 153.31 14.0706 153.326 14.0248C153.952 13.1988 154.901 12.7859 156.17 12.7859ZM177.831 10.6523C177.831 10.7288 177.8 10.7976 177.739 10.8588C177.694 10.9046 177.632 10.9276 177.555 10.9276H169.733C169.656 10.9276 169.618 10.9658 169.618 11.0423V15.3325C169.618 15.4089 169.656 15.4472 169.733 15.4472H174.986C175.063 15.4472 175.124 15.4778 175.17 15.5389C175.231 15.5848 175.262 15.646 175.262 15.7225V17.4661C175.262 17.5425 175.231 17.6114 175.17 17.6726C175.124 17.7184 175.063 17.7413 174.986 17.7413H169.733C169.656 17.7413 169.618 17.7796 169.618 17.8561V22.2839C169.618 22.3604 169.656 22.3986 169.733 22.3986H177.555C177.632 22.3986 177.694 22.4292 177.739 22.4904C177.8 22.5363 177.831 22.5975 177.831 22.6739V24.4175C177.831 24.494 177.8 24.5628 177.739 24.624C177.694 24.6699 177.632 24.6928 177.555 24.6928H167.232C167.156 24.6928 167.086 24.6699 167.026 24.624C166.979 24.5628 166.956 24.494 166.956 24.4175V8.90868C166.956 8.83221 166.979 8.77104 167.026 8.72515C167.086 8.66397 167.156 8.63338 167.232 8.63338H177.555C177.632 8.63338 177.694 8.66397 177.739 8.72515C177.8 8.77104 177.831 8.83221 177.831 8.90868V10.6523ZM179.203 24.6928C179.095 24.6928 179.019 24.6623 178.974 24.6011C178.943 24.5246 178.958 24.4405 179.019 24.3487L182.736 18.8885C182.767 18.8426 182.767 18.7967 182.736 18.7509L179.019 13.3136C178.989 13.2524 178.974 13.1988 178.974 13.153C178.974 13.0306 179.05 12.9694 179.203 12.9694H181.451C181.589 12.9694 181.696 13.0306 181.773 13.153L184.158 16.686C184.189 16.7166 184.22 16.7319 184.25 16.7319C184.281 16.7319 184.304 16.7166 184.319 16.686L186.705 13.153C186.782 13.0306 186.888 12.9694 187.026 12.9694H189.435C189.542 12.9694 189.611 13.0077 189.642 13.0841C189.687 13.1453 189.68 13.2218 189.618 13.3136L185.902 18.7509C185.887 18.7967 185.887 18.8426 185.902 18.8885L189.618 24.3487C189.649 24.4099 189.665 24.4634 189.665 24.5093C189.665 24.6316 189.588 24.6928 189.435 24.6928H187.186C187.049 24.6928 186.942 24.6316 186.865 24.5093L184.479 20.9762C184.465 20.9456 184.441 20.9303 184.411 20.9303C184.38 20.9303 184.35 20.9456 184.319 20.9762L181.933 24.5093C181.856 24.6316 181.749 24.6928 181.612 24.6928H179.203ZM201.126 15.9978C201.402 16.7778 201.539 17.7337 201.539 18.8655C201.539 19.9515 201.41 20.8844 201.15 21.6645C200.814 22.6739 200.271 23.4616 199.52 24.0275C198.787 24.5934 197.854 24.8763 196.722 24.8763C195.637 24.8763 194.764 24.4864 194.107 23.7063C194.076 23.6757 194.045 23.6681 194.015 23.6834C193.984 23.6987 193.969 23.7292 193.969 23.7751V28.7536C193.969 28.8301 193.939 28.8912 193.877 28.9371C193.831 28.9983 193.77 29.0288 193.694 29.0288H191.583C191.507 29.0288 191.438 28.9983 191.377 28.9371C191.33 28.8912 191.308 28.8301 191.308 28.7536V13.2447C191.308 13.1683 191.33 13.1071 191.377 13.0612C191.438 13 191.507 12.9694 191.583 12.9694H193.694C193.77 12.9694 193.831 13 193.877 13.0612C193.939 13.1071 193.969 13.1683 193.969 13.2447V13.933C193.969 13.9789 193.984 14.0095 194.015 14.0248C194.045 14.0401 194.076 14.0248 194.107 13.9789C194.78 13.1836 195.659 12.7859 196.745 12.7859C197.831 12.7859 198.748 13.0688 199.498 13.6347C200.247 14.2006 200.79 14.9883 201.126 15.9978ZM198.145 21.6186C198.603 20.9151 198.833 19.982 198.833 18.8196C198.833 17.7031 198.649 16.8237 198.282 16.1813C197.854 15.4319 197.203 15.0571 196.332 15.0571C195.536 15.0571 194.94 15.4242 194.542 16.1584C194.19 16.7549 194.015 17.6419 194.015 18.8196C194.015 20.0279 194.206 20.9456 194.589 21.5726C194.986 22.2457 195.559 22.5822 196.309 22.5822C197.12 22.5822 197.732 22.261 198.145 21.6186ZM213.46 17.512C213.521 17.8943 213.551 18.3225 213.551 18.7967L213.529 19.5079C213.529 19.6915 213.437 19.7832 213.253 19.7832H206.072C205.996 19.7832 205.958 19.8214 205.958 19.8979C206.003 20.4026 206.073 20.7468 206.164 20.9303C206.532 22.0315 207.426 22.5898 208.849 22.6051C209.888 22.6051 210.714 22.1769 211.326 21.3203C211.387 21.2285 211.463 21.1827 211.555 21.1827C211.617 21.1827 211.671 21.2056 211.716 21.2515L213.139 22.4216C213.276 22.5286 213.3 22.6509 213.208 22.7886C212.733 23.4616 212.098 23.9816 211.303 24.3487C210.523 24.7157 209.651 24.8992 208.688 24.8992C207.495 24.8992 206.478 24.6316 205.637 24.0963C204.81 23.561 204.206 22.8115 203.824 21.848C203.473 21.0221 203.296 19.875 203.296 18.4067C203.296 17.5196 203.388 16.8007 203.572 16.2501C203.878 15.1795 204.451 14.3383 205.292 13.7265C206.149 13.0994 207.174 12.7859 208.367 12.7859C211.38 12.7859 213.078 14.3612 213.46 17.512ZM208.367 15.0801C207.8 15.0801 207.327 15.2254 206.945 15.516C206.577 15.7913 206.317 16.1813 206.164 16.686C206.073 16.9461 206.012 17.2825 205.981 17.6955C205.95 17.772 205.981 17.8102 206.072 17.8102H210.73C210.806 17.8102 210.844 17.772 210.844 17.6955C210.814 17.3131 210.768 17.0225 210.707 16.8237C210.57 16.2731 210.294 15.8448 209.881 15.5389C209.483 15.233 208.978 15.0801 208.367 15.0801ZM220.985 12.8318C221.474 12.8318 221.902 12.9312 222.27 13.13C222.393 13.1912 222.438 13.3059 222.407 13.4742L222.017 15.5389C222.003 15.7225 221.895 15.776 221.696 15.6995C221.467 15.6231 221.2 15.5848 220.893 15.5848C220.695 15.5848 220.542 15.5925 220.435 15.6078C219.792 15.6383 219.257 15.8678 218.829 16.296C218.4 16.709 218.186 17.2519 218.186 17.9249V24.4175C218.186 24.494 218.156 24.5628 218.095 24.624C218.048 24.6699 217.988 24.6928 217.911 24.6928H215.8C215.724 24.6928 215.655 24.6699 215.594 24.624C215.548 24.5628 215.525 24.494 215.525 24.4175V13.2447C215.525 13.1683 215.548 13.1071 215.594 13.0612C215.655 13 215.724 12.9694 215.8 12.9694H217.911C217.988 12.9694 218.048 13 218.095 13.0612C218.156 13.1071 218.186 13.1683 218.186 13.2447V14.2771C218.186 14.3383 218.194 14.3765 218.209 14.3918C218.239 14.3918 218.27 14.3689 218.301 14.323C218.943 13.3289 219.838 12.8318 220.985 12.8318ZM230.111 14.8507C230.111 14.9272 230.08 14.996 230.019 15.0571C229.973 15.103 229.912 15.126 229.836 15.126H227.496C227.419 15.126 227.381 15.1642 227.381 15.2407V20.7697C227.381 21.3509 227.503 21.7715 227.747 22.0315C228.008 22.2915 228.413 22.4216 228.963 22.4216H229.652C229.728 22.4216 229.789 22.4521 229.836 22.5133C229.896 22.5592 229.927 22.6204 229.927 22.6969V24.4175C229.927 24.5858 229.836 24.6852 229.652 24.7157L228.459 24.7387C227.251 24.7387 226.348 24.5322 225.751 24.1193C225.155 23.7063 224.849 22.9263 224.834 21.7792V15.2407C224.834 15.1642 224.796 15.126 224.719 15.126H223.411C223.335 15.126 223.266 15.103 223.205 15.0571C223.16 14.996 223.136 14.9272 223.136 14.8507V13.2447C223.136 13.1683 223.16 13.1071 223.205 13.0612C223.266 13 223.335 12.9694 223.411 12.9694H224.719C224.796 12.9694 224.834 12.9312 224.834 12.8547V10.1705C224.834 10.094 224.857 10.0328 224.903 9.98696C224.964 9.92578 225.033 9.8952 225.109 9.8952H227.106C227.182 9.8952 227.243 9.92578 227.289 9.98696C227.35 10.0328 227.381 10.094 227.381 10.1705V12.8547C227.381 12.9312 227.419 12.9694 227.496 12.9694H229.836C229.912 12.9694 229.973 13 230.019 13.0612C230.08 13.1071 230.111 13.1683 230.111 13.2447V14.8507ZM236.374 24.8305C235.411 24.8305 234.562 24.6928 233.828 24.4175C233.109 24.1269 232.551 23.7369 232.153 23.2475C231.755 22.7428 231.556 22.1845 231.556 21.5726V21.3662C231.556 21.2897 231.58 21.2285 231.625 21.1827C231.686 21.1215 231.755 21.0909 231.832 21.0909H233.851C233.927 21.0909 233.989 21.1215 234.034 21.1827C234.095 21.2285 234.126 21.2897 234.126 21.3662V21.4121C234.126 21.7945 234.333 22.1309 234.745 22.4216C235.174 22.6969 235.709 22.8345 236.351 22.8345C236.964 22.8345 237.46 22.7121 237.843 22.4674C238.225 22.2074 238.417 21.8862 238.417 21.5039C238.417 21.152 238.256 20.8921 237.935 20.7238C237.628 20.5403 237.123 20.3491 236.421 20.1502L235.548 19.875C234.768 19.6455 234.111 19.4008 233.576 19.1408C233.04 18.8808 232.589 18.5291 232.222 18.0856C231.854 17.6267 231.672 17.0455 231.672 16.3419C231.672 15.2713 232.092 14.4224 232.933 13.7953C233.774 13.153 234.883 12.8318 236.26 12.8318C237.193 12.8318 238.011 12.9847 238.714 13.2906C239.418 13.5812 239.961 13.9942 240.344 14.5295C240.726 15.0495 240.917 15.646 240.917 16.319C240.917 16.3954 240.887 16.4643 240.825 16.5254C240.779 16.5713 240.718 16.5943 240.642 16.5943H238.691C238.615 16.5943 238.546 16.5713 238.485 16.5254C238.439 16.4643 238.417 16.3954 238.417 16.319C238.417 15.9213 238.218 15.5925 237.82 15.3325C237.437 15.0571 236.91 14.9195 236.237 14.9195C235.64 14.9195 235.151 15.0342 234.768 15.2636C234.402 15.4778 234.218 15.7837 234.218 16.1813C234.218 16.5484 234.393 16.8313 234.745 17.0302C235.113 17.2137 235.717 17.4202 236.558 17.6496L237.063 17.7873C237.873 18.032 238.554 18.2843 239.104 18.5443C239.655 18.7891 240.122 19.1408 240.504 19.5997C240.887 20.0432 241.078 20.6244 241.078 21.3433C241.078 22.4292 240.649 23.2857 239.793 23.9128C238.936 24.5246 237.796 24.8305 236.374 24.8305Z" fill="#101828"/>
<path d="M244.499 24.7388C244.026 24.7388 243.635 24.5858 243.33 24.2799C243.024 23.974 242.871 23.584 242.871 23.1098C242.871 22.6357 243.024 22.2457 243.33 21.9398C243.635 21.6339 244.026 21.4809 244.499 21.4809C244.974 21.4809 245.356 21.6339 245.647 21.9398C245.953 22.2457 246.105 22.6357 246.105 23.1098C246.105 23.584 245.953 23.974 245.647 24.2799C245.341 24.5858 244.959 24.7388 244.499 24.7388ZM253.281 24.8764C252.103 24.8764 251.085 24.5782 250.23 23.9816C249.373 23.3698 248.777 22.5516 248.44 21.5268C248.195 20.8386 248.073 19.9209 248.073 18.7738C248.073 17.6726 248.195 16.7702 248.44 16.0666C248.761 15.0572 249.35 14.2619 250.206 13.6807C251.078 13.0842 252.103 12.7859 253.281 12.7859C254.474 12.7859 255.513 13.0842 256.401 13.6807C257.288 14.2772 257.877 15.0266 258.167 15.929C258.243 16.1737 258.297 16.4184 258.328 16.6631V16.709C258.328 16.862 258.243 16.9537 258.075 16.9843L256.011 17.2826H255.965C255.827 17.2826 255.735 17.2061 255.69 17.0531C255.69 16.9767 255.682 16.9155 255.667 16.8696C255.636 16.7473 255.605 16.6402 255.575 16.5484C255.437 16.1202 255.162 15.7684 254.749 15.4931C254.336 15.2178 253.846 15.0801 253.281 15.0801C252.7 15.0801 252.202 15.2331 251.789 15.539C251.392 15.8296 251.125 16.2349 250.986 16.7549C250.834 17.2443 250.757 17.925 250.757 18.7967C250.757 19.6379 250.826 20.3185 250.964 20.8386C251.116 21.3739 251.392 21.8021 251.789 22.1233C252.187 22.4292 252.684 22.5822 253.281 22.5822C253.862 22.5822 254.359 22.4369 254.772 22.1462C255.201 21.8404 255.475 21.4351 255.598 20.9304C255.613 20.8997 255.621 20.8615 255.621 20.8156C255.636 20.8003 255.643 20.7774 255.643 20.7469C255.69 20.5632 255.797 20.4868 255.965 20.5174L258.03 20.8386C258.106 20.8539 258.167 20.8921 258.213 20.9533C258.274 20.9992 258.297 21.068 258.283 21.1598C258.236 21.4044 258.198 21.5804 258.167 21.6874C257.877 22.6663 257.288 23.4463 256.401 24.0275C255.513 24.5934 254.474 24.8764 253.281 24.8764ZM264.989 24.8764C263.782 24.8764 262.741 24.5705 261.869 23.9587C261.013 23.3469 260.409 22.4981 260.057 21.4122C259.797 20.5863 259.667 19.7144 259.667 18.7967C259.667 17.8178 259.789 16.9461 260.034 16.1813C260.386 15.1107 260.998 14.2772 261.869 13.6807C262.741 13.0842 263.789 12.7859 265.012 12.7859C266.175 12.7859 267.177 13.0842 268.018 13.6807C268.874 14.2772 269.478 15.1031 269.83 16.1584C270.106 16.8925 270.243 17.7644 270.243 18.7738C270.243 19.7373 270.113 20.6092 269.853 21.3892C269.502 22.4751 268.897 23.3317 268.04 23.9587C267.185 24.5705 266.167 24.8764 264.989 24.8764ZM264.989 22.5822C265.555 22.5822 266.037 22.4216 266.434 22.1004C266.848 21.7792 267.147 21.3281 267.329 20.7469C267.483 20.242 267.559 19.5997 267.559 18.8196C267.559 17.9937 267.483 17.3514 267.329 16.8925C267.161 16.3113 266.871 15.8678 266.458 15.5619C266.045 15.2407 265.541 15.0801 264.944 15.0801C264.377 15.0801 263.888 15.2407 263.475 15.5619C263.062 15.8678 262.764 16.3113 262.58 16.8925C262.428 17.4279 262.351 18.0702 262.351 18.8196C262.351 19.5691 262.428 20.2115 262.58 20.7469C262.749 21.3281 263.04 21.7792 263.453 22.1004C263.881 22.4216 264.393 22.5822 264.989 22.5822ZM284.85 12.7859C286.028 12.7859 286.945 13.1453 287.603 13.8642C288.276 14.5678 288.612 15.5543 288.612 16.8237V24.4176C288.612 24.4941 288.581 24.5628 288.52 24.624C288.475 24.6699 288.413 24.6928 288.336 24.6928H286.25C286.173 24.6928 286.104 24.6699 286.043 24.624C285.997 24.5628 285.974 24.4941 285.974 24.4176V17.3743C285.974 16.6708 285.783 16.1125 285.4 15.6996C285.034 15.2866 284.536 15.0801 283.909 15.0801C283.282 15.0801 282.769 15.2866 282.372 15.6996C281.974 16.1125 281.775 16.6631 281.775 17.3514V24.4176C281.775 24.4941 281.745 24.5628 281.683 24.624C281.638 24.6699 281.577 24.6928 281.501 24.6928H279.413C279.336 24.6928 279.267 24.6699 279.206 24.624C279.16 24.5628 279.137 24.4941 279.137 24.4176V17.3743C279.137 16.6708 278.946 16.1125 278.563 15.6996C278.181 15.2866 277.677 15.0801 277.049 15.0801C276.468 15.0801 275.987 15.2484 275.604 15.5849C275.237 15.9213 275.023 16.3802 274.962 16.9614V24.4176C274.962 24.4941 274.931 24.5628 274.87 24.624C274.824 24.6699 274.763 24.6928 274.686 24.6928H272.576C272.499 24.6928 272.43 24.6699 272.369 24.624C272.324 24.5628 272.3 24.4941 272.3 24.4176V13.2448C272.3 13.1683 272.324 13.1071 272.369 13.0612C272.43 13 272.499 12.9695 272.576 12.9695H274.686C274.763 12.9695 274.824 13 274.87 13.0612C274.931 13.1071 274.962 13.1683 274.962 13.2448V14.0019C274.962 14.0477 274.976 14.0783 275.007 14.0936C275.038 14.1089 275.068 14.0936 275.099 14.0477C275.436 13.6195 275.849 13.3059 276.338 13.1071C276.843 12.893 277.401 12.7859 278.013 12.7859C278.762 12.7859 279.42 12.9389 279.986 13.2448C280.552 13.5507 280.988 13.9942 281.293 14.5754C281.34 14.6366 281.393 14.6366 281.454 14.5754C281.791 13.9636 282.257 13.5124 282.854 13.2218C283.45 12.9312 284.115 12.7859 284.85 12.7859Z" fill="#78B980"/>
</g>
<defs>
<clipPath id="clip0_37_6">
<rect width="243.586" height="22.7071" fill="white" transform="translate(45.4144 7.14645)"/>
</clipPath>
</defs>
</svg>
