<svg width="36" height="36" viewBox="0 0 36 36" fill="none" xmlns="http://www.w3.org/2000/svg">
<path d="M30 19.5C30 27 24.75 30.75 18.51 32.925C18.1832 33.0357 17.8283 33.0304 17.505 32.91C11.25 30.75 6 27 6 19.5V8.99997C6 8.60215 6.15804 8.22062 6.43934 7.93931C6.72064 7.65801 7.10218 7.49997 7.5 7.49997C10.5 7.49997 14.25 5.69997 16.86 3.41997C17.1778 3.14847 17.582 2.9993 18 2.9993C18.418 2.9993 18.8222 3.14847 19.14 3.41997C21.765 5.71497 25.5 7.49997 28.5 7.49997C28.8978 7.49997 29.2794 7.65801 29.5607 7.93931C29.842 8.22062 30 8.60215 30 8.99997V19.5Z" stroke="#78B980" stroke-width="3" stroke-linecap="round" stroke-linejoin="round"/>
<path d="M13.5 18L16.5 21L22.5 15" stroke="#78B980" stroke-width="3" stroke-linecap="round" stroke-linejoin="round"/>
</svg>
